<svg width="60" height="60" viewBox="0 0 60 60" fill="none" xmlns="http://www.w3.org/2000/svg">
<rect x="0.5" y="0.5" width="59" height="59" rx="29.5" fill="white"/>
<rect x="0.5" y="0.5" width="59" height="59" rx="29.5" stroke="#EDEDED"/>
<path d="M30.0558 19.058C31.7673 19.058 33.1546 17.6761 33.1546 15.9733C33.1546 14.2687 31.7683 12.8887 30.0558 12.8887C28.3434 12.8887 26.957 14.2687 26.957 15.9733C26.957 17.678 28.3434 19.058 30.0558 19.058Z" fill="#2B2B2B"/>
<path d="M32.7408 20.5193H27.3073C25.8054 20.5193 24.1719 22.1454 24.1719 23.6404V30.3814C24.1719 31.1289 24.78 31.7352 25.5309 31.7352H26.4802L26.9972 40.5775C26.9972 41.3728 27.6457 42.0174 28.4446 42.0174H31.6054C32.4043 42.0174 33.0528 41.3728 33.0528 40.5775L33.5697 31.7352H34.519C35.27 31.7352 35.8781 31.1289 35.8781 30.3814V23.6404C35.8781 22.1454 34.2446 20.5193 32.7426 20.5193H32.7408Z" fill="#2B2B2B"/>
<path d="M38.0909 37.3818C37.0571 37.0515 35.8643 36.7923 34.5711 36.6108L34.4555 38.5971C35.5702 38.7608 36.5946 38.9873 37.4828 39.2707C39.2235 39.8265 40.0064 40.5029 40.0064 40.8061C40.0064 41.1092 39.2235 41.7856 37.4828 42.3414C35.9875 42.8194 34.1077 43.1338 32.056 43.2592C31.9093 43.2835 31.758 43.2966 31.6048 43.2966H31.2862C30.8708 43.3125 30.4497 43.32 30.0249 43.32C29.6001 43.32 29.179 43.3116 28.7636 43.2966H28.4449C28.2908 43.2966 28.1404 43.2835 27.9938 43.2592C25.942 43.1338 24.0632 42.8185 22.5669 42.3414C20.8263 41.7856 20.0434 41.1092 20.0434 40.8061C20.0434 40.5029 20.8263 39.8265 22.5669 39.2707C23.4551 38.9873 24.4796 38.7608 25.5943 38.5971L25.4787 36.6108C24.1854 36.7923 22.9927 37.0515 21.9588 37.3818C20.1768 37.9515 18.0518 39.0069 18.0518 40.8051C18.0518 42.6033 20.1768 43.6596 21.9588 44.2285C24.1281 44.9208 26.9928 45.3025 30.0258 45.3025C33.0588 45.3025 35.9236 44.9208 38.0928 44.2285C39.8748 43.6587 41.9999 42.6033 41.9999 40.8051C41.9999 39.0069 39.8748 37.9506 38.0928 37.3818H38.0909Z" fill="#2B2B2B"/>
</svg>
